<?xml version="1.0" encoding="UTF-8"?>
<svg width="300px" height="100px" viewBox="0 0 300 100" version="1.1" xmlns="http://www.w3.org/2000/svg" xmlns:xlink="http://www.w3.org/1999/xlink">
    <g id="Page-1" stroke="none" stroke-width="1" fill="none" fill-rule="evenodd">
        <g id="画板-copy-2">
            <g id="同方有云logo">
                <g id="分组">
                    <g id="Group">
                        <path d="M74.9204128,6.91895995 C67.2948734,2.58805619 58.6741838,0.299982207 49.8980739,0.277616279 L50.0270853,14.0806202 L74.9204128,6.91895995" id="Shape" fill="#F2D75D" fill-rule="nonzero"></path>
                        <polyline id="Shape" fill="#DB2856" fill-rule="nonzero" points="74.738624 93.0050388 81.1070937 67.9070736 50.0212211 85.8433786 74.738624 93.0050388"></polyline>
                        <path d="M99.7844195,50.0116925 C99.7485159,41.2906977 97.4451994,32.7279679 93.0992856,25.15927 L81.1598711,32.0286176 L99.7785553,50.0116925" id="Shape" fill="#F6907F" fill-rule="nonzero"></path>
                        <polyline id="Shape" fill="#B62748" fill-rule="nonzero" points="50.0212211 85.8433786 81.1070937 67.9070736 49.9860362 49.9415375 50.0212211 85.8433786"></polyline>
                        <path d="M25.0106106,6.95988372 C17.4628443,11.3704924 11.1771918,17.6389721 6.75550372,25.1651163 L18.6655975,32.0286176 L25.0106106,6.95988372" id="Shape" fill="#D9E365" fill-rule="nonzero"></path>
                        <path d="M6.74963957,25.1534238 C2.409372,32.7235889 0.112108284,41.2863506 0.0820981355,50.0058463 L18.6714617,32.0286176 L6.74963957,25.1534238" id="Shape" fill="#41ADE2" fill-rule="nonzero"></path>
                        <path d="M49.8980739,0.277616279 C41.1635043,0.308821875 32.5871382,2.60351189 25.0106106,6.93649871 L50.0270853,14.0806202 L49.8980739,0.277616279" id="Shape" fill="#F1EC5F" fill-rule="nonzero"></path>
                        <path d="M0.0820981355,50.0058463 C0.0891386564,58.704466 2.36242056,67.2521049 6.67926973,74.8114987 L18.759424,67.9187661 L0.0820981355,50.0058463" id="Shape" fill="#5798D2" fill-rule="nonzero"></path>
                        <path d="M93.0992856,25.15927 C88.7067026,17.6272892 82.44705,11.3464815 74.9204128,6.91895995 L81.1833277,32.0286176 L93.0992856,25.15927" id="Shape" fill="#F6C778" fill-rule="nonzero"></path>
                        <polyline id="Shape" fill="#F5B052" fill-rule="nonzero" points="74.9028203 6.9131137 50.0270853 14.0864664 81.1657352 32.0286176 74.9028203 6.9131137"></polyline>
                        <polyline id="Shape" fill="#F15758" fill-rule="nonzero" points="99.7844195 50.0116925 81.1657352 32.0286176 81.1070937 67.9070736 99.7844195 50.0116925"></polyline>
                        <polyline id="Shape" fill="#DBCF3E" fill-rule="nonzero" points="25.0223389 6.95403747 18.6655975 32.0286176 50.0270853 14.0864664 25.0223389 6.95403747"></polyline>
                        <polyline id="Shape" fill="#2D8EA7" fill-rule="nonzero" points="0.0820981355 50.0058463 18.759424 67.9187661 18.6714617 32.0286176 0.0820981355 50.0058463"></polyline>
                        <polyline id="Shape" fill="#C2B639" fill-rule="nonzero" points="50.0270853 14.0221576 18.6655975 32.0286176 49.9860362 49.9415375 50.0270853 14.0221576"></polyline>
                        <polyline id="Shape" fill="#D6262D" fill-rule="nonzero" points="81.1070937 67.9070736 81.1657352 32.0286176 49.9860362 49.9415375 81.1070937 67.9070736"></polyline>
                        <polyline id="Shape" fill="#375AA9" fill-rule="nonzero" points="24.9812898 93.057655 50.0212211 85.8433786 18.759424 67.9187661 24.9812898 93.057655"></polyline>
                        <polyline id="Shape" fill="#E28D30" fill-rule="nonzero" points="81.1657352 32.0286176 50.0270853 14.0864664 49.9860362 49.9415375 81.1657352 32.0286176"></polyline>
                        <polyline id="Shape" fill="#34419A" fill-rule="nonzero" points="18.759424 67.9187661 50.0212211 85.8433786 49.9860362 49.9415375 18.759424 67.9187661"></polyline>
                        <polyline id="Shape" fill="#2B7197" fill-rule="nonzero" points="18.6655975 32.0286176 18.759424 67.9187661 49.9860362 49.9415375 18.6655975 32.0286176"></polyline>
                        <path d="M6.67926973,74.8114987 C11.1168291,82.3535086 17.4176108,88.6370709 24.9812898,93.0635013 L18.759424,67.9246124 L6.67926973,74.817345" id="Shape" fill="#4576BB" fill-rule="nonzero"></path>
                        <path d="M50.0212211,99.7223837 C58.7057057,99.6669976 67.2254261,97.353644 74.738624,93.010885 L50.0212211,85.8433786 L50.0212211,99.7223837" id="Shape" fill="#ED6380" fill-rule="nonzero"></path>
                        <path d="M74.738624,93.0050388 C82.3432536,88.6302817 88.7014488,82.3921095 93.2107045,74.8816537 L81.1070937,67.9187661 L74.738624,93.0167313" id="Shape" fill="#F15F79" fill-rule="nonzero"></path>
                        <path d="M24.9812898,93.0635013 C32.6139048,97.3947921 41.2388079,99.6884172 50.0212211,99.7223837 L50.0212211,85.8433786 L24.9812898,93.0635013" id="Shape" fill="#5678BB" fill-rule="nonzero"></path>
                        <path d="M81.1070937,67.9070736 L93.2107045,74.8699612 C97.5179467,67.2886639 99.7826862,58.7246323 99.7844195,50.0116925 L81.1070937,67.9070736" id="Shape" fill="#F37A81" fill-rule="nonzero"></path>
                        <path d="M47.2240203,12.461208 L47.3061185,78.0620155 L26.7815846,66.3402778 L42.2746756,57.3838178 C42.2746756,57.3838178 39.9290146,53.0108204 34.9796699,55.4370155 L16.0267289,66.3402778 L52.6366331,87.3867894 L52.6366331,21.7742894 L72.9969707,33.5252584 L57.5390647,42.4817183 C57.5390647,42.4817183 60.3362654,46.9657946 64.9630818,44.3291344 L83.8046038,33.5135659 L47.212292,12.4670543" id="Shape" fill="#FFFFFF" fill-rule="nonzero"></path>
                    </g>
                </g>
                <g id="Group" transform="translate(114.000000, 21.000000)" fill="#252F3D" fill-rule="nonzero">
                    <path d="M29.8688524,37.4025824 L32.5794178,37.4025824 C33.987244,37.381052 35.1161159,36.2354104 35.1123492,34.8320238 L35.1123492,6.2804631 C35.1161159,4.87707649 33.987244,3.73143497 32.5794178,3.70990457 L5.6053441,3.70990457 C4.17769191,3.70990457 3.02635949,6.01160366 3.02635949,7.42803386 L3.02635949,41.6059701 L0,41.6059701 L0,7.42803386 C0,4.37221684 2.53293131,0.693432836 5.6053441,0.693432836 L32.5794178,0.693432836 C34.0607586,0.69689352 35.4797538,1.28810686 36.5228932,2.33645124 C37.5660326,3.38479561 38.1474574,4.80398388 38.1387086,6.2804631 L38.1387086,34.8320238 C38.145703,36.30737 37.5635026,37.7248701 36.5205534,38.7717932 C35.4776042,39.8187162 34.0596125,40.4090293 32.5794178,40.4124965 L29.8688524,40.4124965 L29.8688524,37.4025824 Z M31.9149346,11.6445367 L6.2566693,11.6445367 L6.2566693,8.58871973 L31.9149346,8.58871973 L31.9149346,11.6445367 Z M6.40140823,22.2677633 C6.41937421,19.1895796 8.91847863,16.6986403 12.0067523,16.680733 L25.8227413,16.680733 C28.9264195,16.6770707 31.449454,19.174276 31.4675597,22.2677633 L31.4675597,29.4810653 C31.4495937,32.5592489 28.9504893,35.0501883 25.8622156,35.0680955 L12.0462266,35.0680955 C8.94254842,35.0717579 6.41951388,32.5745526 6.40140823,29.4810653 L6.40140823,22.2677633 Z M9.42776772,29.4810653 C9.41887318,30.1660982 9.68751495,30.8257602 10.1729153,31.3108089 C10.6583157,31.7958576 11.3194535,32.0653015 12.0067523,32.0581813 L25.8227413,32.0581813 C26.5168222,32.076078 27.1882715,31.8113985 27.6823185,31.325152 C28.1763655,30.8389055 28.4503797,30.1730494 28.4412002,29.4810653 L28.4412002,22.2677633 C28.4500947,21.5827304 28.181453,20.9230684 27.6960526,20.4380196 C27.2106522,19.9529709 26.5495144,19.6835271 25.8622156,19.6906472 L12.0462266,19.6906472 C11.3589277,19.6835271 10.69779,19.9529709 10.2123896,20.4380196 C9.7269892,20.9230684 9.45834743,21.5827304 9.46724198,22.2677633 L9.42776772,29.4810653 Z" id="Shape"></path>
                    <path d="M48.5402985,4.49484647 L66.1353795,4.49484647 L66.1353795,0 L69.10338,0 L69.10338,4.49484647 L86.6791045,4.49484647 L86.6791045,7.48489651 L59.2251002,7.48489651 C59.2251002,10.0384904 59.0960567,12.5073989 58.921848,14.8395076 L78.6396945,14.8395076 C81.6571258,14.8394319 84.1092209,17.2976708 84.1304954,20.344066 L84.1304954,34.5712322 C84.112913,37.6265798 81.6658953,40.1000506 78.6396945,40.1213904 L72.7488588,40.1213904 L72.7488588,37.1248261 L78.6396945,37.1248261 C79.3126077,37.131867 79.9599928,36.8650899 80.4358398,36.3846634 C80.9116868,35.9042369 81.1759209,35.2506214 81.1689471,34.5712322 L81.1689471,20.3570945 C81.1477627,18.9631287 80.0205303,17.8453708 78.6396945,17.8491005 L58.6379523,17.8491005 C57.7695813,25.566236 55.7554396,33.1074101 52.6632383,40.2191045 L49.9146118,39.0335073 C53.5342819,30.564956 56.2377432,20.6697795 56.2829084,7.49792505 L48.5402985,7.49792505 L48.5402985,4.49484647 Z" id="Shape"></path>
                    <path d="M114.724356,1.1582788 C114.28098,2.21839838 113.844124,3.19344663 113.420309,4.16849488 L136.606269,4.16849488 L136.606269,7.17871097 L111.946735,7.17871097 C111.066504,8.94557693 110.094988,10.6273716 109.129993,12.1782872 C109.260398,12.1782872 109.390803,12.1324796 109.566849,12.1324796 L128.521176,12.1324796 C129.989254,12.1237776 131.400368,12.7021009 132.442747,13.7396759 C133.485127,14.7772509 134.072976,16.1886768 134.076417,17.6621157 L134.076417,34.4735181 C134.055058,37.5427623 131.579322,40.0245854 128.521176,40.0424179 L125.658792,40.0424179 L125.658792,37.0387457 L128.521176,37.0387457 C129.931291,37.0351492 131.073525,35.8887618 131.077108,34.4735181 L131.077108,32.5692293 L107.010917,32.5692293 L107.056558,40.2191045 L104.05725,40.2191045 L104.011608,19.0756085 C102.455925,20.8433856 100.80836,22.5275228 99.0757893,24.1209924 L97.080597,21.89605 C101.720805,17.6661323 105.62372,12.6873572 108.627935,7.16562307 L98.5020085,7.16562307 L98.5020085,4.15540699 L110.121069,4.15540699 C110.773093,2.84661738 111.353394,1.45930041 111.972816,0 L114.724356,1.1582788 Z M107.010917,17.6490278 L107.010917,20.8751942 L131.077108,20.8751942 L131.077108,17.6490278 C131.059237,16.2461473 129.919082,15.119361 128.521176,15.1230639 L109.566849,15.1230639 C108.168943,15.119361 107.028788,16.2461473 107.010917,17.6490278 Z M107.010917,29.5459253 L131.077108,29.5459253 L131.077108,23.9312179 L107.010917,23.9312179 L107.010917,29.5459253 Z" id="Shape"></path>
                    <path d="M146.314328,13.7198816 L185.146567,13.7198816 L185.146567,16.7391405 L156.924479,16.7391405 L152.254449,35.81298 L177.486937,35.81298 C178.897036,35.81298 180.040147,34.6610384 180.040147,33.2400464 L180.040147,24.4579413 L183.036261,24.4579413 L183.036261,33.2400464 C183.032672,36.3270296 180.550256,38.828622 177.486937,38.8322388 L148.730759,38.8322388 L153.882772,16.7391405 L146.314328,16.7391405 L146.314328,13.7198816 Z M147.942651,1.38686567 L183.518245,1.38686567 L183.518245,4.3995609 L147.923111,4.3995609 L147.942651,1.38686567 Z" id="Shape"></path>
                    <polygon id="Shape" points="13.8686567 49.7839836 8.37695394 49.7839836 8.37695394 58.2483582 5.49170278 58.2483582 5.49170278 49.7839836 0 49.7839836 0 49.2337313 13.8686567 49.2337313"></polygon>
                    <path d="M31.8671378,53.8906087 L22.3528057,53.8906087 L22.3528057,58.2483582 L19.4161194,58.2483582 L19.4161194,49.8455838 C19.4161194,49.4920691 19.9808668,49.2337313 20.6784959,49.2337313 L32.5913433,49.2337313 L32.5913433,49.7843986 L22.8976208,49.7843986 C22.4856874,49.7843986 22.3528057,49.9271642 22.3528057,50.1243167 L22.3528057,53.3399415 L31.8671378,53.3399415 L31.8671378,53.8906087 Z" id="Shape"></path>
                    <path d="M48.20229,54.9647033 L50.620597,54.9647033 L50.620597,55.5062664 C50.620597,57.0281273 48.5797506,58.2483582 46.1038648,58.2483582 L42.6171523,58.2483582 C40.1476642,58.2483582 38.138806,57.0144169 38.138806,55.5062664 L38.138806,51.9758232 C38.138806,50.4402517 40.1668571,49.2337313 42.6171523,49.2337313 L46.1038648,49.2337313 C48.5797506,49.2337313 50.620597,50.4676727 50.620597,51.9758232 L50.620597,52.6065043 L48.20229,52.6065043 L48.20229,52.0786516 C48.20229,50.7898685 46.5325066,49.7478736 44.3637074,49.7478736 L44.2485499,49.7478736 C42.1885106,49.7478736 40.4995343,50.7898685 40.4995343,52.0786516 L40.4995343,55.3965827 C40.4995343,56.6853659 42.1885106,57.7136503 44.3381168,57.7136503 C46.4877231,57.7136503 48.1766994,56.6716554 48.1766994,55.3965827 L48.20229,54.9647033 Z" id="Shape"></path>
                    <path d="M59.9235821,49.2337313 L59.9235821,57.3373778 C59.9235821,57.5413287 60.0608955,57.7044893 60.4865672,57.7044893 L65.8761194,57.7044893 L65.8761194,58.2483582 L58.1934328,58.2483582 C57.4450746,58.2483582 56.8614925,57.9696254 56.8614925,57.6161106 L56.8614925,49.2337313 L59.9235821,49.2337313 Z" id="Shape"></path>
                    <path d="M70.7301493,51.993311 C70.7301493,50.4533974 72.9855832,49.2337313 75.7063215,49.2337313 L79.5838583,49.2337313 C82.3498346,49.2337313 84.598806,50.4533974 84.598806,51.993311 L84.598806,55.4887786 C84.598806,57.0218784 82.3498346,58.2483582 79.5838583,58.2483582 L75.7063215,58.2483582 C72.9855832,58.2483582 70.7301493,57.0218784 70.7301493,55.4887786 L70.7301493,51.993311 Z M77.5610766,49.7720197 C75.2733299,49.7720197 73.3797994,50.8145276 73.3797994,52.0818901 L73.3797994,55.3933857 C73.3797994,56.667562 75.2733299,57.7032561 77.5610766,57.7032561 L77.7937288,57.7032561 C80.0814756,57.7032561 81.9362307,56.667562 81.9362307,55.3933857 L81.9362307,52.0818901 C81.9362307,50.8145276 80.0814756,49.7720197 77.7937288,49.7720197 L77.5610766,49.7720197 Z" id="Shape"></path>
                    <path d="M94.2215151,58.2483582 C92.3470241,58.2483582 90.8397015,57.4727601 90.8397015,56.5134678 L90.8397015,49.2337313 L93.7061912,49.2337313 L93.7061912,56.3569874 C93.7061912,57.112175 94.8978779,57.7176858 96.3665512,57.7176858 L99.1815085,57.7176858 C100.630857,57.7176858 101.841869,57.112175 101.841869,56.3569874 L101.841869,49.2337313 L104.708358,49.2337313 L104.708358,56.5134678 C104.708358,57.4727601 103.181711,58.2483582 101.313661,58.2483582 L94.2215151,58.2483582 Z" id="Shape"></path>
                    <path d="M119.43331,49.2337313 C122.405455,49.2337313 124.81791,50.4740898 124.81791,52.0058986 L124.81791,55.4829689 C124.81791,57.0079998 122.405455,58.2483582 119.43331,58.2483582 L112.92933,58.2483582 C112.234542,58.2483582 111.642687,57.9636858 111.642687,57.5705667 L111.642687,49.8776333 C111.642687,49.5251817 112.208809,49.2337313 112.92933,49.2337313 L119.43331,49.2337313 Z M117.45188,57.7129029 C119.941534,57.7129029 121.95513,56.6826599 121.95513,55.4151898 L121.95513,52.127901 C121.95513,50.8604309 119.941534,49.816632 117.45188,49.816632 L115.264586,49.816632 C114.87216,49.816632 114.5505,49.9860799 114.5505,50.1894173 L114.5505,57.3536734 C114.5505,57.550233 114.87216,57.7129029 115.264586,57.7129029 L117.45188,57.7129029 Z" id="Shape"></path>
                    <polygon id="Shape" points="134.52597 56.1680597 134.52597 57.5549254 131.752239 57.5549254 131.752239 56.1680597"></polygon>
                    <path d="M150.474925,53.908842 L144.211228,53.908842 C143.35282,53.908842 142.648657,54.2947272 142.648657,54.7618514 L142.648657,56.894375 C142.648657,57.3614992 143.35282,57.7338446 144.211228,57.7338446 L150.474925,57.7338446 L150.474925,58.2483582 L142.427349,58.2483582 C141.13303,58.2483582 140.073433,57.6796853 140.073433,56.9688441 L140.073433,54.6806124 C140.073433,54.0036208 141.13303,53.3943284 142.427349,53.3943284 L150.474925,53.3943284 L150.474925,53.908842 Z" id="Shape"></path>
                    <path d="M163.891239,53.3943284 C165.65645,53.3943284 167.117313,54.0666317 167.117313,54.9137338 L167.117313,56.7491218 C167.117313,57.5693319 165.65645,58.2483582 163.891239,58.2483582 L158.527976,58.2483582 C156.756003,58.2483582 155.328955,57.5760549 155.328955,56.7491218 L155.328955,54.9137338 C155.328955,54.0733547 156.756003,53.3943284 158.527976,53.3943284 L163.891239,53.3943284 Z M157.865177,56.581046 C157.865177,57.2533493 159.001404,57.7710229 160.374345,57.7710229 L162.058397,57.7710229 C163.411048,57.7710229 164.554039,57.2466263 164.554039,56.581046 L164.554039,55.0683636 C164.554039,54.3960603 163.431338,53.8716637 162.058397,53.8716637 L160.408162,53.8716637 C159.05551,53.8716637 157.898993,54.4162294 157.898993,55.0683636 L157.865177,56.581046 Z" id="Shape"></path>
                    <path d="M175.790393,52.7008955 L175.790393,53.1249112 L184.774716,53.1249112 C185.358697,53.1249112 185.84,53.3464119 185.84,53.6185413 L185.84,57.5549254 L183.407816,57.5549254 L183.407816,53.840042 C183.407816,53.6818272 183.131868,53.5489268 182.798165,53.5489268 L180.815197,53.5489268 L180.815197,57.5549254 L178.376595,57.5549254 L178.376595,53.5489268 L175.809646,53.5489268 L175.809646,57.5549254 L173.358209,57.5549254 L173.358209,52.7008955 L175.790393,52.7008955 Z" id="Shape"></path>
                </g>
            </g>
        </g>
    </g>
</svg>