<?xml version="1.0" encoding="UTF-8"?>
<svg width="186px" height="162px" viewBox="0 0 186 162" version="1.1" xmlns="http://www.w3.org/2000/svg" xmlns:xlink="http://www.w3.org/1999/xlink">
    <g id="Page-1" stroke="none" stroke-width="1" fill="none" fill-rule="evenodd">
        <g id="画板-copy" transform="translate(-65.000000, 0.000000)">
            <g id="同方有云logo上下版" transform="translate(65.000000, 0.000000)">
                <g id="分组-4" transform="translate(0.000000, 146.000000)" fill-rule="nonzero">
                    <g id="分组-2">
                        <path d="M49.1065436,10.1718631 L51.7564593,10.1718631 L51.7564593,11.1330798 C51.7564593,13.8342205 49.5201548,16 46.8071459,16 L42.9865004,16 C40.2805019,16 38.0792492,13.8098859 38.0792492,11.1330798 L38.0792492,4.86692015 C38.0792492,2.14144487 40.301533,0 42.9865004,0 L46.8071459,0 C49.5201548,0 51.7564593,2.19011407 51.7564593,4.86692015 L51.7564593,5.98631179 L49.1065436,5.98631179 L49.1065436,5.04942966 C49.1065436,2.76197719 47.27684,0.912547529 44.9003283,0.912547529 L44.7741419,0.912547529 C42.5168064,0.912547529 40.6660716,2.76197719 40.6660716,5.04942966 L40.6660716,10.938403 C40.6660716,13.2258555 42.5168064,15.0509506 44.8722869,15.0509506 C47.2277675,15.0509506 49.0785022,13.2015209 49.0785022,10.938403 L49.1065436,10.1718631 Z" id="Shape" fill="#5B5E60"></path>
                        <path d="M59.6134451,0 L59.6134451,14.3831071 C59.6134451,14.745098 59.747375,15.0346908 60.1625574,15.0346908 L65.4193025,15.0346908 L65.4193025,16 L57.9259295,16 C57.196012,16 56.6268103,15.505279 56.6268103,14.8778281 L56.6268103,0 L59.6134451,0 Z" id="Shape" fill="#5B5E60"></path>
                        <path d="M69.3198934,4.89795918 C69.3198934,2.16477702 71.7030712,0 74.5779075,0 L78.6750614,0 C81.5976978,0 83.974047,2.16477702 83.974047,4.89795918 L83.974047,11.1020408 C83.974047,13.8231293 81.5976978,16 78.6750614,16 L74.5779075,16 C71.7030712,16 69.3198934,13.8231293 69.3198934,11.1020408 L69.3198934,4.89795918 Z M76.5377128,0.955404384 C74.120392,0.955404384 72.1196152,2.80574452 72.1196152,5.05517763 L72.1196152,10.9327286 C72.1196152,13.1942555 74.120392,15.0325019 76.5377128,15.0325019 L76.783542,15.0325019 C79.2008628,15.0325019 81.1606681,13.1942555 81.1606681,10.9327286 L81.1606681,5.05517763 C81.1606681,2.80574452 79.2008628,0.955404384 76.783542,0.955404384 L76.5377128,0.955404384 Z" id="Shape" fill="#5B5E60"></path>
                        <path d="M93.3946954,16 C91.4140365,16 89.8213417,14.6233962 89.8213417,12.9207547 L89.8213417,0 L92.8501844,0 L92.8501844,12.6430189 C92.8501844,13.9833962 94.1093662,15.0581132 95.6612227,15.0581132 L98.6356143,15.0581132 C100.167052,15.0581132 101.446653,13.9833962 101.446653,12.6430189 L101.446653,0 L104.475495,0 L104.475495,12.9207547 C104.475495,14.6233962 102.862381,16 100.888529,16 L93.3946954,16 Z" id="Shape" fill="#5B5E60"></path>
                        <path d="M118.010973,0 C121.316744,0 124,2.20150376 124,4.92030075 L124,11.0917293 C124,13.7984962 121.316744,16 118.010973,16 L110.776916,16 C110.004138,16 109.345846,15.4947368 109.345846,14.7969925 L109.345846,1.14285714 C109.345846,0.517293233 109.975517,0 110.776916,0 L118.010973,0 Z M115.807126,15.0496241 C118.576246,15.0496241 120.81587,13.2210526 120.81587,10.9714286 L120.81587,5.13684211 C120.81587,2.88721805 118.576246,1.03458647 115.807126,1.03458647 L113.374308,1.03458647 C112.937831,1.03458647 112.580064,1.33533835 112.580064,1.6962406 L112.580064,14.4120301 C112.580064,14.7609023 112.937831,15.0496241 113.374308,15.0496241 L115.807126,15.0496241 Z" id="Shape" fill="#5B5E60"></path>
                        <polygon id="Shape" fill="#172E7C" points="14.6541536 0.976639035 8.85141024 0.976639035 8.85141024 16 5.8027434 16 5.8027434 0.976639035 0 0.976639035 0 0 14.6541536 0"></polygon>
                        <path d="M33.4340435,8.26546003 L23.557208,8.26546003 L23.557208,16 L20.5086317,16 L20.5086317,1.08597285 C20.5086317,0.45852187 21.0948964,0 21.8191057,0 L34.1858417,0 L34.1858417,0.977375566 L24.122781,0.977375566 C23.6951526,0.977375566 23.557208,1.23076923 23.557208,1.58069382 L23.557208,7.28808446 L33.4340435,7.28808446 L33.4340435,8.26546003 Z" id="Shape" fill="#BB2022"></path>
                    </g>
                    <g id="分组-3" transform="translate(131.000000, 8.000000)" fill="#252F3D">
                        <polygon id="Shape" points="2.91777476 5 2.91777476 8 0 8 0 5"></polygon>
                        <path d="M19.2543116,0.847977685 L13.5163866,0.847977685 C12.7300329,0.847977685 12.0849771,1.48396095 12.0849771,2.25383543 L12.0849771,5.76847978 C12.0849771,6.53835425 12.7300329,7.15202232 13.5163866,7.15202232 L19.2543116,7.15202232 L19.2543116,8 L11.8822453,8 C10.6965713,8 9.72591588,7.06276151 9.72591588,5.89121339 L9.72591588,2.11994421 C9.72591588,1.0041841 10.6965713,0 11.8822453,0 L19.2543116,0 L19.2543116,0.847977685 Z" id="Shape"></path>
                        <path d="M32.8868054,0 C34.5514047,0 35.9290041,1.10803324 35.9290041,2.50415512 L35.9290041,5.52908587 C35.9290041,6.88088643 34.5514047,8 32.8868054,8 L27.8292299,8 C26.1582529,8 24.8125424,6.89196676 24.8125424,5.52908587 L24.8125424,2.50415512 C24.8125424,1.11911357 26.1582529,0 27.8292299,0 L32.8868054,0 Z M27.204208,5.25207756 C27.204208,6.3601108 28.2756742,7.2132964 29.5703625,7.2132964 L31.1584284,7.2132964 C32.4339834,7.2132964 33.5118274,6.34903047 33.5118274,5.25207756 L33.5118274,2.75900277 C33.5118274,1.65096953 32.4531167,0.786703601 31.1584284,0.786703601 L29.6022514,0.786703601 C28.3266964,0.786703601 27.2360969,1.68421053 27.2360969,2.75900277 L27.204208,5.25207756 Z" id="Shape"></path>
                        <path d="M44.7568545,0 L44.7568545,0.698826597 L53.9015016,0.698826597 C54.4959036,0.698826597 54.9857955,1.06388527 54.9857955,1.51238592 L54.9857955,8 L52.5102088,8 L52.5102088,1.87744459 C52.5102088,1.6166884 52.2293375,1.39765319 51.8896792,1.39765319 L49.871325,1.39765319 L49.871325,8 L47.3892065,8 L47.3892065,1.39765319 L44.7764501,1.39765319 L44.7764501,8 L42.2812679,8 L42.2812679,0 L44.7568545,0 Z" id="Shape"></path>
                    </g>
                </g>
                <g id="同方有云logo" transform="translate(32.000000, 0.000000)">
                    <g id="分组">
                        <g id="Group">
                            <path d="M90.6536994,8.37194154 C81.4267968,3.13154799 70.9957623,0.36297847 60.3766694,0.335915698 L60.5327732,17.0375504 L90.6536994,8.37194154" id="Shape" fill="#F2D75D" fill-rule="nonzero"></path>
                            <polyline id="Shape" fill="#DB2856" fill-rule="nonzero" points="90.4337351 112.536097 98.1395834 82.1675591 60.5256775 103.870488 90.4337351 112.536097"></polyline>
                            <path d="M120.739148,60.5141479 C120.695704,49.9617442 117.908691,39.6008412 112.650136,30.4427167 L98.203444,38.7546273 L120.732052,60.5141479" id="Shape" fill="#F6907F" fill-rule="nonzero"></path>
                            <polyline id="Shape" fill="#B62748" fill-rule="nonzero" points="60.5256775 103.870488 98.1395834 82.1675591 60.4831038 60.4292603 60.5256775 103.870488"></polyline>
                            <path d="M30.2628388,8.4214593 C21.1300416,13.7582958 13.5244021,21.3431562 8.1741595,30.4497907 L22.585373,38.7546273 L30.2628388,8.4214593" id="Shape" fill="#D9E365" fill-rule="nonzero"></path>
                            <path d="M8.16706387,30.4356428 C2.91534013,39.5955426 0.135651024,49.9564843 0.0993387439,60.507074 L22.5924686,38.7546273 L8.16706387,30.4356428" id="Shape" fill="#41ADE2" fill-rule="nonzero"></path>
                            <path d="M60.3766694,0.335915698 C49.8078402,0.373674468 39.4304372,3.15024939 30.2628388,8.39316344 L60.5327732,17.0375504 L60.3766694,0.335915698" id="Shape" fill="#F1EC5F" fill-rule="nonzero"></path>
                            <path d="M0.0993387439,60.507074 C0.107857774,71.0324038 2.85852887,81.3750469 8.08191638,90.5219134 L22.698903,82.181707 L0.0993387439,60.507074" id="Shape" fill="#5798D2" fill-rule="nonzero"></path>
                            <path d="M112.650136,30.4427167 C107.33511,21.3290199 99.7609305,13.7292426 90.6536994,8.37194154 L98.2318265,38.7546273 L112.650136,30.4427167" id="Shape" fill="#F6C778" fill-rule="nonzero"></path>
                            <polyline id="Shape" fill="#F5B052" fill-rule="nonzero" points="90.6324126 8.36486757 60.5327732 17.0446244 98.2105396 38.7546273 90.6324126 8.36486757"></polyline>
                            <polyline id="Shape" fill="#F15758" fill-rule="nonzero" points="120.739148 60.5141479 98.2105396 38.7546273 98.1395834 82.1675591 120.739148 60.5141479"></polyline>
                            <polyline id="Shape" fill="#DBCF3E" fill-rule="nonzero" points="30.27703 8.41438534 22.585373 38.7546273 60.5327732 17.0446244 30.27703 8.41438534"></polyline>
                            <polyline id="Shape" fill="#2D8EA7" fill-rule="nonzero" points="0.0993387439 60.507074 22.698903 82.181707 22.5924686 38.7546273 0.0993387439 60.507074"></polyline>
                            <polyline id="Shape" fill="#C2B639" fill-rule="nonzero" points="60.5327732 16.9668107 22.585373 38.7546273 60.4831038 60.4292603 60.5327732 16.9668107"></polyline>
                            <polyline id="Shape" fill="#D6262D" fill-rule="nonzero" points="98.1395834 82.1675591 98.2105396 38.7546273 60.4831038 60.4292603 98.1395834 82.1675591"></polyline>
                            <polyline id="Shape" fill="#375AA9" fill-rule="nonzero" points="30.2273606 112.599763 60.5256775 103.870488 22.698903 82.181707 30.2273606 112.599763"></polyline>
                            <polyline id="Shape" fill="#E28D30" fill-rule="nonzero" points="98.2105396 38.7546273 60.5327732 17.0446244 60.4831038 60.4292603 98.2105396 38.7546273"></polyline>
                            <polyline id="Shape" fill="#34419A" fill-rule="nonzero" points="22.698903 82.181707 60.5256775 103.870488 60.4831038 60.4292603 22.698903 82.181707"></polyline>
                            <polyline id="Shape" fill="#2B7197" fill-rule="nonzero" points="22.585373 38.7546273 22.698903 82.181707 60.4831038 60.4292603 22.585373 38.7546273"></polyline>
                            <path d="M8.08191638,90.5219134 C13.4513632,99.6477454 21.0753091,107.250856 30.2273606,112.606837 L22.698903,82.188781 L8.08191638,90.5289874" id="Shape" fill="#4576BB" fill-rule="nonzero"></path>
                            <path d="M60.5256775,120.664084 C71.0339039,120.597067 81.3427656,117.797909 90.4337351,112.543171 L60.5256775,103.870488 L60.5256775,120.664084" id="Shape" fill="#ED6380" fill-rule="nonzero"></path>
                            <path d="M90.4337351,112.536097 C99.6353369,107.242641 107.328753,99.6944525 112.784952,90.606801 L98.1395834,82.181707 L90.4337351,112.550245" id="Shape" fill="#F15F79" fill-rule="nonzero"></path>
                            <path d="M30.2273606,112.606837 C39.4628249,117.847698 49.8989576,120.622985 60.5256775,120.664084 L60.5256775,103.870488 L30.2273606,112.606837" id="Shape" fill="#5678BB" fill-rule="nonzero"></path>
                            <path d="M98.1395834,82.1675591 L112.784952,90.5926531 C117.996716,81.4192833 120.73705,71.0568051 120.739148,60.5141479 L98.1395834,82.1675591" id="Shape" fill="#F37A81" fill-rule="nonzero"></path>
                            <path d="M57.1410646,15.0780617 L57.2404034,94.4550388 L32.4057174,80.2717361 L51.1523575,69.4344196 C51.1523575,69.4344196 48.3141077,64.1430927 42.3254005,67.0787888 L19.3923419,80.2717361 L63.6903261,105.738015 L63.6903261,26.3468902 L88.3263346,40.5655627 L69.6222682,51.4028792 C69.6222682,51.4028792 73.0068811,56.8286114 78.6053289,53.6382526 L101.403571,40.5514147 L57.1268734,15.0851357" id="Shape" fill="#FFFFFF" fill-rule="nonzero"></path>
                        </g>
                    </g>
                </g>
            </g>
        </g>
    </g>
</svg>